<?xml version="1.0" standalone="no"?>
<!DOCTYPE svg PUBLIC "-//W3C//DTD SVG 20010904//EN"
 "http://www.w3.org/TR/2001/REC-SVG-20010904/DTD/svg10.dtd">
<svg version="1.0" xmlns="http://www.w3.org/2000/svg"
 width="512.000000pt" height="512.000000pt" viewBox="0 0 512.000000 512.000000"
 preserveAspectRatio="xMidYMid meet">

<g transform="translate(0.000000,512.000000) scale(0.100000,-0.100000)"
fill="#000000" stroke="none">
<path d="M933 4819 c-386 -50 -721 -317 -854 -679 -120 -331 -76 -680 124
-974 54 -81 186 -212 266 -266 319 -214 708 -246 1050 -85 324 154 542 448
597 808 69 446 -177 903 -593 1102 -178 86 -393 120 -590 94z m332 -118 c291
-60 545 -262 671 -535 64 -139 79 -212 79 -391 0 -171 -10 -230 -62 -358 -26
-65 -93 -187 -103 -187 -3 0 -25 35 -50 76 -56 95 -143 191 -225 250 -66 46
-221 124 -249 124 -24 0 -21 5 29 51 28 26 60 71 83 117 36 73 37 80 37 181 0
98 -2 111 -32 173 -41 88 -113 160 -201 201 -62 30 -75 32 -172 32 -94 0 -111
-3 -164 -28 -115 -53 -184 -128 -226 -244 -19 -53 -22 -77 -18 -155 5 -114 36
-185 113 -266 42 -42 49 -55 36 -59 -59 -21 -193 -90 -245 -127 -97 -69 -215
-206 -257 -299 -7 -15 -15 -27 -19 -27 -10 0 -76 120 -103 187 -52 128 -62
187 -62 358 0 136 4 172 23 239 86 300 296 533 582 646 149 59 367 76 535 41z
m-121 -376 c142 -37 232 -154 230 -300 0 -83 -24 -142 -79 -203 -87 -97 -240
-127 -357 -69 -111 55 -172 152 -172 277 0 121 61 222 162 271 81 39 134 45
216 24z"/>
<path d="M2432 4428 c-7 -7 -12 -24 -12 -38 0 -14 5 -31 12 -38 9 -9 318 -12
1329 -12 1184 0 1319 2 1333 16 20 20 20 48 0 68 -14 14 -149 16 -1333 16
-1011 0 -1320 -3 -1329 -12z"/>
<path d="M2432 3808 c-7 -7 -12 -24 -12 -38 0 -14 5 -31 12 -38 9 -9 240 -12
979 -12 866 0 969 2 983 16 20 20 20 48 0 68 -14 14 -117 16 -983 16 -739 0
-970 -3 -979 -12z"/>
<path d="M2432 3188 c-19 -19 -15 -66 7 -78 30 -16 2283 -14 2299 2 7 7 12 24
12 38 0 14 -5 31 -12 38 -17 17 -2289 17 -2306 0z"/>
<path d="M970 2403 c-258 -26 -501 -148 -675 -335 -388 -419 -375 -1060 29
-1464 140 -141 312 -236 514 -286 132 -33 350 -30 487 6 188 49 353 144 491
281 415 412 415 1076 0 1491 -95 95 -175 150 -300 210 -171 81 -367 116 -546
97z m335 -131 c165 -45 303 -123 423 -236 269 -256 362 -650 238 -1006 -25
-71 -103 -220 -115 -220 -3 0 -23 29 -43 64 -103 175 -285 326 -455 377 -24 7
-43 14 -43 16 0 2 18 19 39 39 170 153 175 431 11 594 -29 30 -78 64 -118 83
-62 30 -75 32 -172 32 -97 0 -110 -2 -172 -32 -88 -41 -160 -113 -201 -201
-30 -63 -32 -74 -32 -177 0 -101 2 -115 29 -169 16 -33 53 -85 83 -115 29 -30
53 -56 53 -56 0 -1 -19 -7 -42 -14 -171 -51 -359 -207 -459 -380 -19 -33 -37
-61 -40 -61 -12 0 -90 149 -115 220 -99 283 -62 591 98 838 143 217 367 368
623 418 97 19 317 11 410 -14z m-98 -393 c108 -52 167 -146 167 -269 0 -88
-22 -145 -79 -208 -117 -131 -333 -131 -450 0 -57 62 -79 121 -79 203 0 39 5
87 13 108 20 57 82 129 139 160 99 54 185 55 289 6z"/>
<path d="M2432 2008 c-7 -7 -12 -24 -12 -38 0 -14 5 -31 12 -38 9 -9 318 -12
1329 -12 1184 0 1319 2 1333 16 21 21 20 47 -2 67 -17 16 -124 17 -1333 17
-1010 0 -1318 -3 -1327 -12z"/>
<path d="M2432 1388 c-7 -7 -12 -24 -12 -38 0 -14 5 -31 12 -38 9 -9 240 -12
979 -12 866 0 969 2 983 16 20 20 20 48 0 68 -14 14 -117 16 -983 16 -739 0
-970 -3 -979 -12z"/>
<path d="M2432 768 c-7 -7 -12 -24 -12 -38 0 -14 5 -31 12 -38 17 -17 2289
-17 2306 0 7 7 12 24 12 38 0 14 -5 31 -12 38 -17 17 -2289 17 -2306 0z"/>
</g>
</svg>
